{
	"asset":{
		"generator":"Khronos glTF Blender I/O v4.2.70",
		"version":"2.0"
	},
	"scene":0,
	"scenes":[
		{
			"name":"Scene",
			"nodes":[
				0,
				1,
				2,
				3,
				4,
				5,
				6,
				7,
				8,
				9,
				10
			]
		}
	],
	"nodes":[
		{
			"name":"Imagen de referencia ",
			"translation":[
				-1.402103066444397,
				0,
				-0.29118165373802185
			]
		},
		{
			"mesh":0,
			"name":"Mango",
			"rotation":[
				-0.49689537286758423,
				-0.5067570805549622,
				-0.4995536804199219,
				0.4967276453971863
			],
			"scale":[
				0.11993172019720078,
				0.11993172019720078,
				0.11993172019720078
			],
			"translation":[
				1.857314944267273,
				0,
				-0.1488431841135025
			]
		},
		{
			"mesh":1,
			"name":"braker 1",
			"rotation":[
				0,
				-0.13347814977169037,
				0,
				0.9910518527030945
			],
			"scale":[
				0.2826899290084839,
				0.2826899290084839,
				0.2826899290084839
			],
			"translation":[
				1.1623148918151855,
				0,
				-0.03262091428041458
			]
		},
		{
			"mesh":2,
			"name":"braker 2",
			"rotation":[
				-0.36443591117858887,
				-0.6278488039970398,
				-0.5443320274353027,
				0.42035120725631714
			],
			"scale":[
				0.049902502447366714,
				0.04990250617265701,
				0.04990250989794731
			],
			"translation":[
				1.2541759014129639,
				0,
				0.031145328655838966
			]
		},
		{
			"mesh":3,
			"name":"Gas 1",
			"rotation":[
				-0.4760962426662445,
				-0.5231061577796936,
				-0.4794822037220001,
				0.5194122791290283
			],
			"scale":[
				-0.08275675773620605,
				-0.083022840321064,
				-0.11247693002223969
			],
			"translation":[
				1.1030584573745728,
				0,
				-0.14701800048351288
			]
		},
		{
			"mesh":4,
			"name":"Gas 2",
			"rotation":[
				0,
				-0.015542222186923027,
				0,
				0.9998792409896851
			],
			"scale":[
				0.11628900468349457,
				0.03858872875571251,
				0.11628900468349457
			],
			"translation":[
				1.0065258741378784,
				-0.009201058186590672,
				-0.15844447910785675
			]
		},
		{
			"mesh":5,
			"name":"exhauts 1",
			"rotation":[
				0,
				-0.22334077954292297,
				0,
				0.9747404456138611
			],
			"scale":[
				0.11046623438596725,
				0.09104398638010025,
				0.11046623438596725
			],
			"translation":[
				0.025777192786335945,
				0,
				-0.058074966073036194
			]
		},
		{
			"mesh":6,
			"name":"exhauts 2",
			"rotation":[
				0,
				-0.31216228008270264,
				0,
				0.9500288367271423
			],
			"scale":[
				0.09291622787714005,
				0.07778563350439072,
				0.09291622787714005
			],
			"translation":[
				0.1295686662197113,
				0,
				-0.09954067319631577
			]
		},
		{
			"mesh":7,
			"name":"exhauts 3",
			"rotation":[
				0,
				-0.39451709389686584,
				0,
				0.9188886284828186
			],
			"scale":[
				0.08191297948360443,
				0.06898000091314316,
				0.08191297948360443
			],
			"translation":[
				0.2304122895002365,
				0,
				-0.12059269845485687
			]
		},
		{
			"mesh":8,
			"name":"exhauts 4",
			"rotation":[
				0,
				-0.39451709389686584,
				0,
				0.9188886284828186
			],
			"scale":[
				0.07476721704006195,
				0.06361833959817886,
				0.07476721704006195
			],
			"translation":[
				0.36077946424484253,
				0,
				-0.14412996172904968
			]
		},
		{
			"mesh":9,
			"name":"Blade",
			"rotation":[
				0,
				-0.31293368339538574,
				0,
				0.949774980545044
			],
			"scale":[
				0.09827150404453278,
				0.06263598054647446,
				0.09827150404453278
			],
			"translation":[
				1.0578433275222778,
				-0.02931852824985981,
				0.1918819546699524
			]
		}
	],
	"meshes":[
		{
			"name":"Cylinder",
			"primitives":[
				{
					"attributes":{
						"POSITION":0,
						"NORMAL":1,
						"TEXCOORD_0":2
					},
					"indices":3
				}
			]
		},
		{
			"name":"Icosphere",
			"primitives":[
				{
					"attributes":{
						"POSITION":4,
						"NORMAL":5,
						"TEXCOORD_0":6
					},
					"indices":7
				}
			]
		},
		{
			"name":"Cylinder.001",
			"primitives":[
				{
					"attributes":{
						"POSITION":8,
						"NORMAL":9,
						"TEXCOORD_0":10
					},
					"indices":11
				}
			]
		},
		{
			"name":"Cylinder.002",
			"primitives":[
				{
					"attributes":{
						"POSITION":12,
						"NORMAL":13,
						"TEXCOORD_0":14
					},
					"indices":15
				}
			]
		},
		{
			"name":"Cube.001",
			"primitives":[
				{
					"attributes":{
						"POSITION":16,
						"NORMAL":17,
						"TEXCOORD_0":18
					},
					"indices":19
				}
			]
		},
		{
			"name":"Cube.002",
			"primitives":[
				{
					"attributes":{
						"POSITION":20,
						"NORMAL":21,
						"TEXCOORD_0":22
					},
					"indices":23
				}
			]
		},
		{
			"name":"Cube.003",
			"primitives":[
				{
					"attributes":{
						"POSITION":24,
						"NORMAL":25,
						"TEXCOORD_0":26
					},
					"indices":27
				}
			]
		},
		{
			"name":"Cube.004",
			"primitives":[
				{
					"attributes":{
						"POSITION":28,
						"NORMAL":29,
						"TEXCOORD_0":30
					},
					"indices":31
				}
			]
		},
		{
			"name":"Cube.005",
			"primitives":[
				{
					"attributes":{
						"POSITION":32,
						"NORMAL":33,
						"TEXCOORD_0":34
					},
					"indices":35
				}
			]
		},
		{
			"name":"Cube.006",
			"primitives":[
				{
					"attributes":{
						"POSITION":36,
						"NORMAL":37,
						"TEXCOORD_0":38
					},
					"indices":39
				}
			]
		}
	],
	"accessors":[
		{
			"bufferView":0,
			"componentType":5126,
			"count":1088,
			"max":[
				0.8855937123298645,
				2.551297187805176,
				0.8855937719345093
			],
			"min":[
				-0.8855932950973511,
				-6.000325679779053,
				-0.8855937719345093
			],
			"type":"VEC3"
		},
		{
			"bufferView":1,
			"componentType":5126,
			"count":1088,
			"type":"VEC3"
		},
		{
			"bufferView":2,
			"componentType":5126,
			"count":1088,
			"type":"VEC2"
		},
		{
			"bufferView":3,
			"componentType":5123,
			"count":1716,
			"type":"SCALAR"
		},
		{
			"bufferView":4,
			"componentType":5126,
			"count":18,
			"max":[
				0.40084514021873474,
				0.22360749542713165,
				0.3344728946685791
			],
			"min":[
				-0.09923090040683746,
				-0.22360749542713165,
				-0.268043577671051
			],
			"type":"VEC3"
		},
		{
			"bufferView":5,
			"componentType":5126,
			"count":18,
			"type":"VEC3"
		},
		{
			"bufferView":6,
			"componentType":5126,
			"count":18,
			"type":"VEC2"
		},
		{
			"bufferView":7,
			"componentType":5123,
			"count":18,
			"type":"SCALAR"
		},
		{
			"bufferView":8,
			"componentType":5126,
			"count":832,
			"max":[
				0.5,
				8.630000114440918,
				0.5
			],
			"min":[
				-1.9567432403564453,
				-0.5,
				-0.5
			],
			"type":"VEC3"
		},
		{
			"bufferView":9,
			"componentType":5126,
			"count":832,
			"type":"VEC3"
		},
		{
			"bufferView":10,
			"componentType":5126,
			"count":832,
			"type":"VEC2"
		},
		{
			"bufferView":11,
			"componentType":5123,
			"count":1332,
			"type":"SCALAR"
		},
		{
			"bufferView":12,
			"componentType":5126,
			"count":320,
			"max":[
				0.5,
				1.400951862335205,
				0.5
			],
			"min":[
				-0.5,
				-0.5,
				-0.5
			],
			"type":"VEC3"
		},
		{
			"bufferView":13,
			"componentType":5126,
			"count":320,
			"type":"VEC3"
		},
		{
			"bufferView":14,
			"componentType":5126,
			"count":320,
			"type":"VEC2"
		},
		{
			"bufferView":15,
			"componentType":5123,
			"count":564,
			"type":"SCALAR"
		},
		{
			"bufferView":16,
			"componentType":5126,
			"count":210,
			"max":[
				1.0591363906860352,
				1,
				1.5329771041870117
			],
			"min":[
				-6.772877216339111,
				-1,
				-1.554502248764038
			],
			"type":"VEC3"
		},
		{
			"bufferView":17,
			"componentType":5126,
			"count":210,
			"type":"VEC3"
		},
		{
			"bufferView":18,
			"componentType":5126,
			"count":210,
			"type":"VEC2"
		},
		{
			"bufferView":19,
			"componentType":5123,
			"count":348,
			"type":"SCALAR"
		},
		{
			"bufferView":20,
			"componentType":5126,
			"count":40,
			"max":[
				1.5615290403366089,
				0.8103163242340088,
				0.11817488819360733
			],
			"min":[
				-1.567146897315979,
				-0.8103163242340088,
				-1.329890489578247
			],
			"type":"VEC3"
		},
		{
			"bufferView":21,
			"componentType":5126,
			"count":40,
			"type":"VEC3"
		},
		{
			"bufferView":22,
			"componentType":5126,
			"count":40,
			"type":"VEC2"
		},
		{
			"bufferView":23,
			"componentType":5123,
			"count":60,
			"type":"SCALAR"
		},
		{
			"bufferView":24,
			"componentType":5126,
			"count":56,
			"max":[
				1.3670772314071655,
				0.8103163242340088,
				0.05075538158416748
			],
			"min":[
				-1.6099897623062134,
				-0.8103163242340088,
				-1.347123384475708
			],
			"type":"VEC3"
		},
		{
			"bufferView":25,
			"componentType":5126,
			"count":56,
			"type":"VEC3"
		},
		{
			"bufferView":26,
			"componentType":5126,
			"count":56,
			"type":"VEC2"
		},
		{
			"bufferView":27,
			"componentType":5123,
			"count":84,
			"type":"SCALAR"
		},
		{
			"bufferView":28,
			"componentType":5126,
			"count":56,
			"max":[
				0.9278634190559387,
				0.8114744424819946,
				0.0404508113861084
			],
			"min":[
				-1.6986603736877441,
				-0.8103163242340088,
				-1.4503493309020996
			],
			"type":"VEC3"
		},
		{
			"bufferView":29,
			"componentType":5126,
			"count":56,
			"type":"VEC3"
		},
		{
			"bufferView":30,
			"componentType":5126,
			"count":56,
			"type":"VEC2"
		},
		{
			"bufferView":31,
			"componentType":5123,
			"count":84,
			"type":"SCALAR"
		},
		{
			"bufferView":32,
			"componentType":5126,
			"count":56,
			"max":[
				1.9541343450546265,
				0.8114743232727051,
				0.22802694141864777
			],
			"min":[
				-1.7960879802703857,
				-0.8103163242340088,
				-3.4300458431243896
			],
			"type":"VEC3"
		},
		{
			"bufferView":33,
			"componentType":5126,
			"count":56,
			"type":"VEC3"
		},
		{
			"bufferView":34,
			"componentType":5126,
			"count":56,
			"type":"VEC2"
		},
		{
			"bufferView":35,
			"componentType":5123,
			"count":84,
			"type":"SCALAR"
		},
		{
			"bufferView":36,
			"componentType":5126,
			"count":386,
			"max":[
				1,
				1.1311099529266357,
				17.437278747558594
			],
			"min":[
				-28.590639114379883,
				-1.1311097145080566,
				-1.155962586402893
			],
			"type":"VEC3"
		},
		{
			"bufferView":37,
			"componentType":5126,
			"count":386,
			"type":"VEC3"
		},
		{
			"bufferView":38,
			"componentType":5126,
			"count":386,
			"type":"VEC2"
		},
		{
			"bufferView":39,
			"componentType":5123,
			"count":588,
			"type":"SCALAR"
		}
	],
	"bufferViews":[
		{
			"buffer":0,
			"byteLength":13056,
			"byteOffset":0,
			"target":34962
		},
		{
			"buffer":0,
			"byteLength":13056,
			"byteOffset":13056,
			"target":34962
		},
		{
			"buffer":0,
			"byteLength":8704,
			"byteOffset":26112,
			"target":34962
		},
		{
			"buffer":0,
			"byteLength":3432,
			"byteOffset":34816,
			"target":34963
		},
		{
			"buffer":0,
			"byteLength":216,
			"byteOffset":38248,
			"target":34962
		},
		{
			"buffer":0,
			"byteLength":216,
			"byteOffset":38464,
			"target":34962
		},
		{
			"buffer":0,
			"byteLength":144,
			"byteOffset":38680,
			"target":34962
		},
		{
			"buffer":0,
			"byteLength":36,
			"byteOffset":38824,
			"target":34963
		},
		{
			"buffer":0,
			"byteLength":9984,
			"byteOffset":38860,
			"target":34962
		},
		{
			"buffer":0,
			"byteLength":9984,
			"byteOffset":48844,
			"target":34962
		},
		{
			"buffer":0,
			"byteLength":6656,
			"byteOffset":58828,
			"target":34962
		},
		{
			"buffer":0,
			"byteLength":2664,
			"byteOffset":65484,
			"target":34963
		},
		{
			"buffer":0,
			"byteLength":3840,
			"byteOffset":68148,
			"target":34962
		},
		{
			"buffer":0,
			"byteLength":3840,
			"byteOffset":71988,
			"target":34962
		},
		{
			"buffer":0,
			"byteLength":2560,
			"byteOffset":75828,
			"target":34962
		},
		{
			"buffer":0,
			"byteLength":1128,
			"byteOffset":78388,
			"target":34963
		},
		{
			"buffer":0,
			"byteLength":2520,
			"byteOffset":79516,
			"target":34962
		},
		{
			"buffer":0,
			"byteLength":2520,
			"byteOffset":82036,
			"target":34962
		},
		{
			"buffer":0,
			"byteLength":1680,
			"byteOffset":84556,
			"target":34962
		},
		{
			"buffer":0,
			"byteLength":696,
			"byteOffset":86236,
			"target":34963
		},
		{
			"buffer":0,
			"byteLength":480,
			"byteOffset":86932,
			"target":34962
		},
		{
			"buffer":0,
			"byteLength":480,
			"byteOffset":87412,
			"target":34962
		},
		{
			"buffer":0,
			"byteLength":320,
			"byteOffset":87892,
			"target":34962
		},
		{
			"buffer":0,
			"byteLength":120,
			"byteOffset":88212,
			"target":34963
		},
		{
			"buffer":0,
			"byteLength":672,
			"byteOffset":88332,
			"target":34962
		},
		{
			"buffer":0,
			"byteLength":672,
			"byteOffset":89004,
			"target":34962
		},
		{
			"buffer":0,
			"byteLength":448,
			"byteOffset":89676,
			"target":34962
		},
		{
			"buffer":0,
			"byteLength":168,
			"byteOffset":90124,
			"target":34963
		},
		{
			"buffer":0,
			"byteLength":672,
			"byteOffset":90292,
			"target":34962
		},
		{
			"buffer":0,
			"byteLength":672,
			"byteOffset":90964,
			"target":34962
		},
		{
			"buffer":0,
			"byteLength":448,
			"byteOffset":91636,
			"target":34962
		},
		{
			"buffer":0,
			"byteLength":168,
			"byteOffset":92084,
			"target":34963
		},
		{
			"buffer":0,
			"byteLength":672,
			"byteOffset":92252,
			"target":34962
		},
		{
			"buffer":0,
			"byteLength":672,
			"byteOffset":92924,
			"target":34962
		},
		{
			"buffer":0,
			"byteLength":448,
			"byteOffset":93596,
			"target":34962
		},
		{
			"buffer":0,
			"byteLength":168,
			"byteOffset":94044,
			"target":34963
		},
		{
			"buffer":0,
			"byteLength":4632,
			"byteOffset":94212,
			"target":34962
		},
		{
			"buffer":0,
			"byteLength":4632,
			"byteOffset":98844,
			"target":34962
		},
		{
			"buffer":0,
			"byteLength":3088,
			"byteOffset":103476,
			"target":34962
		},
		{
			"buffer":0,
			"byteLength":1176,
			"byteOffset":106564,
			"target":34963
		}
	],
	"buffers":[
		{
			"byteLength":107740,
			"uri":"redqueen.bin"
		}
	]
}
