{
	"asset":{
		"generator":"Khronos glTF Blender I/O v4.2.70",
		"version":"2.0"
	},
	"scene":0,
	"scenes":[
		{
			"name":"Scene",
			"nodes":[
				0,
				1
			]
		}
	],
	"nodes":[
		{
			"mesh":0,
			"name":"Blade",
			"rotation":[
				0.713446319103241,
				0,
				0,
				0.700709879398346
			],
			"scale":[
				0.6390207409858704,
				0.6390207409858704,
				0.6390207409858704
			],
			"translation":[
				0,
				0.7592684030532837,
				0.20917481184005737
			]
		},
		{
			"mesh":1,
			"name":"handle",
			"rotation":[
				0.713446319103241,
				0,
				0,
				0.700709879398346
			],
			"scale":[
				0.7886064052581787,
				0.7886064052581787,
				0.7886064052581787
			],
			"translation":[
				0,
				-0.7592685222625732,
				0.18181926012039185
			]
		}
	],
	"materials":[
		{
			"doubleSided":true,
			"name":"Material",
			"pbrMetallicRoughness":{
				"baseColorFactor":[
					0.800000011920929,
					0.800000011920929,
					0.800000011920929,
					1
				],
				"metallicFactor":0,
				"roughnessFactor":0.5
			}
		}
	],
	"meshes":[
		{
			"name":"Cube",
			"primitives":[
				{
					"attributes":{
						"POSITION":0,
						"NORMAL":1,
						"TEXCOORD_0":2
					},
					"indices":3,
					"material":0
				}
			]
		},
		{
			"name":"Cube.001",
			"primitives":[
				{
					"attributes":{
						"POSITION":4,
						"NORMAL":5,
						"TEXCOORD_0":6
					},
					"indices":7
				}
			]
		}
	],
	"accessors":[
		{
			"bufferView":0,
			"componentType":5126,
			"count":116,
			"max":[
				3.0773465633392334,
				1.2115265130996704,
				1.1774373054504395
			],
			"min":[
				-3.2612760066986084,
				-0.9999999403953552,
				-10.110833168029785
			],
			"type":"VEC3"
		},
		{
			"bufferView":1,
			"componentType":5126,
			"count":116,
			"type":"VEC3"
		},
		{
			"bufferView":2,
			"componentType":5126,
			"count":116,
			"type":"VEC2"
		},
		{
			"bufferView":3,
			"componentType":5123,
			"count":180,
			"type":"SCALAR"
		},
		{
			"bufferView":4,
			"componentType":5126,
			"count":88,
			"max":[
				1,
				1,
				4.814373970031738
			],
			"min":[
				-1,
				-1,
				-1
			],
			"type":"VEC3"
		},
		{
			"bufferView":5,
			"componentType":5126,
			"count":88,
			"type":"VEC3"
		},
		{
			"bufferView":6,
			"componentType":5126,
			"count":88,
			"type":"VEC2"
		},
		{
			"bufferView":7,
			"componentType":5123,
			"count":132,
			"type":"SCALAR"
		}
	],
	"bufferViews":[
		{
			"buffer":0,
			"byteLength":1392,
			"byteOffset":0,
			"target":34962
		},
		{
			"buffer":0,
			"byteLength":1392,
			"byteOffset":1392,
			"target":34962
		},
		{
			"buffer":0,
			"byteLength":928,
			"byteOffset":2784,
			"target":34962
		},
		{
			"buffer":0,
			"byteLength":360,
			"byteOffset":3712,
			"target":34963
		},
		{
			"buffer":0,
			"byteLength":1056,
			"byteOffset":4072,
			"target":34962
		},
		{
			"buffer":0,
			"byteLength":1056,
			"byteOffset":5128,
			"target":34962
		},
		{
			"buffer":0,
			"byteLength":704,
			"byteOffset":6184,
			"target":34962
		},
		{
			"buffer":0,
			"byteLength":264,
			"byteOffset":6888,
			"target":34963
		}
	],
	"buffers":[
		{
			"byteLength":7152,
			"uri":"cubesword.bin"
		}
	]
}
